# xmcd
#
# Track frame offsets:
#	150
#	23250
#	39825
#	58950
#	78675
#	102712
#	117232
#	132682
#	141007
#	167122
#	200647
#	237097
#	265297
#	275047
#	294022
#
# Disc length: 4479 seconds
#
# Revision: 1
# Processed by: cddbd v1.5.2PL0 Copyright (c) Steve Scherf et al.
# Submitted via: audiograbber 1.83.01
#
DISCID=df117d0f
DTITLE=Ben Miller Band - Snorty Horse Live
DYEAR=1900
DGENRE=
TTITLE0=Two Trains Runnin'
TTITLE1=Chocolate Jesus
TTITLE2=House Of The Rising Sun 
TTITLE3=St James Infirmary Blues
TTITLE4=How Long
TTITLE5=Prostitute Song
TTITLE6=From A Mine
TTITLE7=Children Of The Lord - You Get A Line
TTITLE8=Black Betty
TTITLE9=This Little Light Of Mine
TTITLE10=Go Where You Want To - Johnny Cash Medley
TTITLE11=Jager Bomb
TTITLE12=Follow You Down
TTITLE13=Led Fred
TTITLE14=Shake 'Em On Down
EXTD=
EXTT0=
EXTT1=
EXTT2=
EXTT3=
EXTT4=
EXTT5=
EXTT6=
EXTT7=
EXTT8=
EXTT9=
EXTT10=
EXTT11=
EXTT12=
EXTT13=
EXTT14=
PLAYORDER=
